# Blender 5.0.1
# www.blender.org
o Wood_Plank.001
v 0.347104 -0.059229 -3.067348
v -0.347104 0.059229 -3.065710
v -0.344871 -0.071071 -3.067675
v 0.344871 0.071071 -3.065384
v -0.347104 0.059229 3.068228
v -0.344871 -0.071071 3.068228
v 0.347104 -0.059229 3.068228
v 0.344871 0.071071 3.068228
vn 0.0171 -0.9999 -0.0000
vn -0.0171 0.9999 -0.0000
vn -0.9999 -0.0171 -0.0000
vn 0.9999 0.0171 -0.0000
vn 0.0002 0.0151 -0.9999
vn -0.0000 -0.0000 1.0000
vt -1.968060 0.505862
vt 2.400212 0.505860
vt 2.400211 0.998590
vt -1.968293 0.998591
vt -1.966893 0.998590
vt -1.966894 0.505860
vt 2.399979 0.505860
vt -1.968293 0.348203
vt 2.400213 0.348203
vt 2.400213 0.440985
vt -1.966894 0.440985
vt -1.966894 0.038394
vt 2.399980 0.038394
vt 2.399980 0.131175
vt -1.968293 0.131176
vt 0.991479 0.828574
vt 0.991481 0.921366
vt 0.498751 0.921366
vt 0.498750 0.828574
vt 0.006020 0.828584
vt 0.498749 0.828584
vt 0.498747 0.921366
vt 0.006018 0.921366
s 0
f 1/1/1 7/2/1 6/3/1 3/4/1
f 2/3/2 5/5/2 8/6/2 4/7/2
f 3/8/3 6/9/3 5/10/3 2/11/3
f 4/12/4 8/13/4 7/14/4 1/15/4
f 3/16/5 2/17/5 4/18/5 1/19/5
f 6/20/6 7/21/6 8/22/6 5/23/6
