# Blender 5.0.1
# www.blender.org
o Barrel_Explosive.001
v -0.000000 0.000000 -0.462509
v -0.000000 1.301411 -0.462509
v 0.327043 0.000000 -0.327043
v 0.327043 1.301411 -0.327043
v 0.462509 0.000000 0.000000
v 0.462509 1.301411 0.000000
v 0.327043 0.000000 0.327043
v 0.327043 1.301411 0.327043
v -0.000000 0.000000 0.462509
v -0.000000 1.301411 0.462509
v -0.327043 0.000000 0.327043
v -0.327043 1.301411 0.327043
v -0.462509 0.000000 -0.000000
v -0.462509 1.301411 -0.000000
v -0.327043 0.000000 -0.327043
v -0.327043 1.301411 -0.327043
v -0.000000 0.414698 -0.462509
v 0.327043 0.414698 -0.327043
v 0.462509 0.414698 0.000000
v 0.327043 0.414698 0.327043
v -0.000000 0.414698 0.462509
v -0.327043 0.414698 0.327043
v -0.462509 0.414698 -0.000000
v -0.327043 0.414698 -0.327043
v -0.000000 0.858055 -0.462509
v 0.327043 0.858055 -0.327043
v 0.462509 0.858055 0.000000
v 0.327043 0.858055 0.327043
v -0.000000 0.858055 0.462509
v -0.327043 0.858055 0.327043
v -0.462509 0.858055 -0.000000
v -0.327043 0.858055 -0.327043
v 0.327043 0.414698 0.334986
v -0.000000 0.414698 0.470452
v -0.327043 0.414698 0.334987
v 0.327043 0.858055 0.334986
v -0.000000 0.858055 0.470452
v -0.327043 0.858055 0.334987
v -0.327043 0.414698 -0.334986
v -0.000000 0.414698 -0.470452
v 0.327043 0.414698 -0.334987
v -0.327043 0.858055 -0.334986
v -0.000000 0.858055 -0.470452
v 0.327043 0.858055 -0.334987
vn -0.0000 -0.6303 -0.7764
vn -0.0000 0.6303 -0.7764
vn 0.5490 -0.6303 -0.5490
vn 0.5490 0.6303 -0.5490
vn 0.7764 -0.6303 -0.0000
vn 0.7764 0.6303 -0.0000
vn 0.5490 -0.6303 0.5490
vn 0.5490 0.6303 0.5490
vn -0.0000 -0.6303 0.7764
vn -0.0000 0.6303 0.7764
vn -0.5490 -0.6303 0.5490
vn -0.5490 0.6303 0.5490
vn -0.7764 -0.6303 -0.0000
vn -0.7764 0.6303 -0.0000
vn -0.5490 -0.6303 -0.5490
vn -0.5490 0.6303 -0.5490
vn -0.0000 -0.0000 -1.0000
vn 0.7071 -0.0000 -0.7071
vn 1.0000 -0.0000 -0.0000
vn 0.7071 -0.0000 0.7071
vn -0.0000 -0.0000 1.0000
vn -0.7071 -0.0000 0.7071
vn -1.0000 -0.0000 -0.0000
vn -0.7071 -0.0000 -0.7071
vn 0.3827 -0.0000 0.9239
vn -0.3827 -0.0000 0.9239
vn -0.3827 -0.0000 -0.9239
vn 0.3827 -0.0000 -0.9239
vt 0.756458 0.717800
vt 0.756458 0.943280
vt 0.659456 0.943280
vt 0.659456 0.717800
vt 0.562453 0.943280
vt 0.562453 0.712264
vt 0.950463 0.712264
vt 0.950463 0.943280
vt 0.853461 0.943280
vt 0.853461 0.717800
vt 0.756458 0.717800
vt 0.503316 0.831932
vt 0.370552 0.964696
vt 0.182796 0.964696
vt 0.050032 0.831933
vt 0.050032 0.644176
vt 0.182796 0.511412
vt 0.370552 0.511412
vt 0.503316 0.644176
vt 0.951876 0.904848
vt 0.889719 0.967006
vt 0.801814 0.967006
vt 0.739656 0.904848
vt 0.739656 0.816944
vt 0.801814 0.754786
vt 0.889719 0.754786
vt 0.951876 0.816944
vt 0.853461 0.281416
vt 0.853461 0.492320
vt 0.756458 0.492320
vt 0.756458 0.281416
vt 0.950463 0.281416
vt 0.950463 0.505855
vt 0.659456 0.281415
vt 0.659456 0.492320
vt 0.562453 0.505855
vt 0.562453 0.281415
vt 0.756458 0.492320
vt 0.853461 0.492320
vt 0.659456 0.492320
vt 0.257239 0.016220
vt 0.257239 0.471168
vt 0.019063 0.471168
vt 0.019063 0.016220
vt 0.495415 0.016220
vt 0.495415 0.471168
s 1
f 25/1/17 2/2/2 4/3/4 26/4/18
f 26/4/18 4/3/4 6/5/6 27/6/19
f 27/7/19 6/8/6 8/9/8 28/10/20
f 28/10/20 8/9/8 10/2/10 29/11/21
f 29/11/21 10/2/10 12/3/12 30/4/22
f 30/4/22 12/3/12 14/5/14 31/6/23
f 4/12/4 2/13/2 16/14/16 14/15/14 12/16/12 10/17/10 8/18/8 6/19/6
f 31/7/23 14/8/14 16/9/16 32/10/24
f 32/10/24 16/9/16 2/2/2 25/1/17
f 1/20/1 3/21/3 5/22/5 7/23/7 9/24/9 11/25/11 13/26/13 15/27/15
f 15/28/15 24/29/24 17/30/17 1/31/1
f 13/32/13 23/33/23 24/29/24 15/28/15
f 11/34/11 22/35/22 23/36/23 13/37/13
f 9/31/9 21/38/21 22/35/22 11/34/11
f 7/28/7 20/39/20 21/38/21 9/31/9
f 5/32/5 19/33/19 20/39/20 7/28/7
f 3/34/3 18/40/18 19/36/19 5/37/5
f 1/31/1 17/30/17 18/40/18 3/34/3
f 24/29/24 32/10/24 25/1/17 17/30/17
f 23/33/23 31/7/23 32/10/24 24/29/24
f 22/35/22 30/4/22 31/6/23 23/36/23
f 21/38/21 29/11/21 30/4/22 22/35/22
f 20/39/20 28/10/20 29/11/21 21/38/21
f 19/33/19 27/7/19 28/10/20 20/39/20
f 18/40/18 26/4/18 27/6/19 19/36/19
f 17/30/17 25/1/17 26/4/18 18/40/18
f 34/41/21 37/42/21 38/43/26 35/44/26
f 33/45/25 36/46/25 37/42/21 34/41/21
f 40/41/17 43/42/17 44/43/28 41/44/28
f 39/45/27 42/46/27 43/42/17 40/41/17
